<?xml version="1.0" encoding="UTF-8" standalone="no"?><svg width="390" height="390" viewBox="0 0 390 390" fill="none" xmlns="http://www.w3.org/2000/svg">
<path d="M0 0H390V390H0V0Z" fill="#F9FAFE"/>
<path d="M88.6367 267.303C88.6367 257.623 96.5735 249.775 106.364 249.775H283.637C293.427 249.775 301.364 257.623 301.364 267.303V328.652C301.364 338.332 293.427 346.18 283.637 346.18H106.364C96.5735 346.18 88.6367 338.332 88.6367 328.652V267.303Z" fill="#ADE2DF"/>
<path d="M130.537 293.596H257.938V302.36H130.537V293.596Z" fill="black"/>
<path fill-rule="evenodd" clip-rule="evenodd" d="M345.682 192.809H44.3184V188.427H345.682V192.809Z" fill="#D9D9D9"/>
<path d="M128.591 145.421C128.591 147.547 128.032 149.551 126.915 151.433C125.84 153.273 124.227 154.807 122.076 156.034C119.966 157.22 117.464 157.915 114.568 158.12V163.089H110.597V158.058C106.461 157.69 103.131 156.463 100.608 154.377C98.0849 152.251 96.7819 149.388 96.6992 145.789H106.006C106.254 148.733 107.785 150.513 110.597 151.126V139.409C107.619 138.672 105.22 137.936 103.4 137.2C101.58 136.464 100.008 135.278 98.6847 133.642C97.361 132.006 96.6992 129.777 96.6992 126.955C96.6992 123.397 97.9815 120.493 100.546 118.243C103.152 115.994 106.502 114.706 110.597 114.378V109.409H114.568V114.378C118.539 114.706 121.704 115.892 124.061 117.937C126.46 119.982 127.805 122.804 128.094 126.403H118.725C118.601 125.217 118.167 124.194 117.422 123.335C116.719 122.435 115.768 121.802 114.568 121.433V133.028C117.671 133.805 120.111 134.562 121.89 135.298C123.71 135.993 125.281 137.159 126.605 138.795C127.929 140.39 128.591 142.599 128.591 145.421ZM105.758 126.525C105.758 127.875 106.171 128.979 106.999 129.838C107.826 130.656 109.026 131.331 110.597 131.863V121.249C109.108 121.454 107.929 122.006 107.061 122.906C106.192 123.806 105.758 125.012 105.758 126.525ZM114.568 151.249C116.14 150.962 117.36 150.329 118.229 149.347C119.139 148.365 119.594 147.179 119.594 145.789C119.594 144.439 119.16 143.355 118.291 142.537C117.422 141.719 116.181 141.044 114.568 140.513V151.249Z" fill="black"/>
<path d="M140.025 148.059C143.996 144.787 147.161 142.067 149.518 139.899C151.876 137.691 153.841 135.4 155.413 133.028C156.984 130.656 157.77 128.325 157.77 126.035C157.77 123.949 157.274 122.313 156.281 121.127C155.289 119.941 153.758 119.348 151.69 119.348C149.622 119.348 148.029 120.043 146.912 121.433C145.796 122.783 145.217 124.644 145.175 127.016H136.737C136.902 122.108 138.371 118.386 141.142 115.851C143.955 113.315 147.512 112.047 151.814 112.047C156.529 112.047 160.149 113.295 162.672 115.789C165.195 118.243 166.457 121.495 166.457 125.544C166.457 128.734 165.588 131.781 163.851 134.685C162.114 137.589 160.128 140.124 157.894 142.292C155.661 144.419 152.745 146.995 149.146 150.022H167.449V157.138H136.799V150.758L140.025 148.059Z" fill="black"/>
<path d="M173.047 124.808C173.254 120.718 174.702 117.569 177.39 115.36C180.12 113.111 183.698 111.986 188.124 111.986C191.144 111.986 193.729 112.517 195.88 113.581C198.031 114.603 199.644 116.014 200.719 117.814C201.836 119.573 202.395 121.577 202.395 123.826C202.395 126.403 201.712 128.591 200.347 130.39C199.023 132.149 197.431 133.335 195.57 133.949V134.194C197.969 134.93 199.83 136.239 201.154 138.12C202.519 140.002 203.201 142.415 203.201 145.359C203.201 147.813 202.622 150.001 201.464 151.924C200.347 153.846 198.672 155.359 196.438 156.463C194.246 157.527 191.599 158.058 188.496 158.058C183.822 158.058 180.017 156.893 177.08 154.562C174.143 152.23 172.592 148.795 172.427 144.255H180.865C180.948 146.259 181.63 147.875 182.912 149.102C184.236 150.288 186.035 150.881 188.31 150.881C190.42 150.881 192.033 150.308 193.15 149.163C194.308 147.977 194.887 146.464 194.887 144.623C194.887 142.169 194.101 140.411 192.529 139.347C190.958 138.284 188.517 137.752 185.208 137.752H183.409V130.697H185.208C191.082 130.697 194.018 128.754 194.018 124.869C194.018 123.11 193.481 121.74 192.405 120.759C191.371 119.777 189.861 119.286 187.876 119.286C185.932 119.286 184.422 119.818 183.347 120.881C182.313 121.904 181.713 123.213 181.547 124.808H173.047Z" fill="black"/>
<path d="M209.693 149.04V142.292L229.982 113.581H240.095V141.556H245.555V149.04H240.095V157.752H231.409V149.04H209.693ZM231.968 122.783L219.248 141.556H231.968V122.783Z" fill="black"/>
<path d="M281.488 120.452H261.385V130.942C262.254 129.879 263.495 129.02 265.108 128.366C266.721 127.671 268.438 127.323 270.258 127.323C273.567 127.323 276.276 128.039 278.386 129.47C280.495 130.902 282.026 132.742 282.977 134.991C283.928 137.2 284.404 139.572 284.404 142.108C284.404 146.811 283.039 150.594 280.309 153.457C277.621 156.32 273.774 157.752 268.769 157.752C264.053 157.752 260.289 156.586 257.476 154.255C254.664 151.924 253.071 148.877 252.699 145.114H261.137C261.509 146.75 262.337 148.059 263.619 149.04C264.943 150.022 266.618 150.513 268.645 150.513C271.085 150.513 272.926 149.756 274.167 148.243C275.408 146.729 276.028 144.725 276.028 142.231C276.028 139.695 275.387 137.773 274.105 136.464C272.864 135.114 271.023 134.439 268.583 134.439C266.845 134.439 265.398 134.869 264.239 135.728C263.081 136.586 262.254 137.732 261.758 139.163H253.443V112.906H281.488V120.452Z" fill="black"/>
</svg>
