<?xml version="1.0" encoding="UTF-8" standalone="no"?><svg width="390" height="390" viewBox="0 0 390 390" fill="none" xmlns="http://www.w3.org/2000/svg">
<rect width="390" height="390" fill="black"/>
<path d="M124 319L124 337L106 337L106 319L124 319Z" fill="#A5DFDC"/>
<path d="M168 319L168 337L151 337L151 319L168 319Z" fill="#A5DFDC"/>
<path d="M346 151L346 337L328 337L328 151L346 151Z" fill="#A5DFDC"/>
<path d="M301 204L301 337L284 337L284 204L301 204Z" fill="#A5DFDC"/>
<path d="M257 279L257 337L239 337L239 279L257 279Z" fill="#A5DFDC"/>
<path d="M213 257L213 337L195 337L195 257L213 257Z" fill="#A5DFDC"/>
<path d="M52.8575 75.3899C51.569 75.3899 50.404 75.1756 49.3626 74.7469C48.3388 74.3182 47.5268 73.701 46.9267 72.8951C46.3265 72.0892 46.0177 71.1375 46 70.0401H49.9715C50.0245 70.7774 50.2893 71.3604 50.7658 71.7891C51.2601 72.2178 51.9308 72.4321 52.7781 72.4321C53.643 72.4321 54.3226 72.2349 54.8168 71.8405C55.311 71.429 55.5582 70.8975 55.5582 70.2459C55.5582 69.7143 55.3905 69.2771 55.0551 68.9342C54.7197 68.5912 54.2961 68.3254 53.7842 68.1368C53.29 67.9311 52.6016 67.7082 51.719 67.4681C50.5187 67.1252 49.5391 66.7908 48.7801 66.465C48.0387 66.1221 47.3944 65.6163 46.8473 64.9475C46.3177 64.2617 46.053 63.3529 46.053 62.2212C46.053 61.1581 46.3265 60.2322 46.8737 59.4434C47.4209 58.6547 48.1888 58.0545 49.1772 57.643C50.1657 57.2143 51.2954 57 52.5663 57C54.4726 57 56.0171 57.4544 57.1997 58.3632C58.4 59.2548 59.0619 60.5065 59.1855 62.1183H55.108C55.0727 61.501 54.7991 60.9952 54.2873 60.6008C53.793 60.1893 53.1311 59.9835 52.3015 59.9835C51.5778 59.9835 50.9953 60.1636 50.554 60.5237C50.1304 60.8837 49.9186 61.4067 49.9186 62.0926C49.9186 62.5727 50.0774 62.9757 50.3952 63.3014C50.7305 63.6101 51.1365 63.8673 51.6131 64.073C52.1073 64.2617 52.7957 64.4846 53.6783 64.7418C54.8786 65.0847 55.8582 65.4276 56.6172 65.7706C57.3762 66.1135 58.0293 66.6279 58.5765 67.3138C59.1237 67.9997 59.3973 68.8999 59.3973 70.0144C59.3973 70.9746 59.1414 71.8663 58.6295 72.6893C58.1176 73.5123 57.3674 74.1725 56.3789 74.6698C55.3905 75.1499 54.2167 75.3899 52.8575 75.3899Z" fill="white"/>
<path d="M66.3177 63.0185C66.7943 62.3669 67.4474 61.8268 68.277 61.3981C69.1242 60.9523 70.0862 60.7294 71.163 60.7294C72.4162 60.7294 73.5459 61.0295 74.552 61.6296C75.5758 62.2298 76.3789 63.0871 76.9614 64.2016C77.5615 65.299 77.8616 66.5765 77.8616 68.0339C77.8616 69.4914 77.5615 70.786 76.9614 71.9177C76.3789 73.0322 75.5758 73.8981 74.552 74.5154C73.5459 75.1327 72.4162 75.4414 71.163 75.4414C70.0862 75.4414 69.1331 75.227 68.3035 74.7984C67.4915 74.3697 66.8296 73.8296 66.3177 73.178V82H62.6109V60.9609H66.3177V63.0185ZM74.0754 68.0339C74.0754 67.1766 73.8901 66.4393 73.5194 65.822C73.1664 65.1876 72.6898 64.7075 72.0896 64.3817C71.5072 64.0559 70.8717 63.893 70.1833 63.893C69.5126 63.893 68.8771 64.0645 68.277 64.4074C67.6945 64.7332 67.2179 65.2133 66.8472 65.8477C66.4942 66.4822 66.3177 67.2281 66.3177 68.0854C66.3177 68.9427 66.4942 69.6886 66.8472 70.323C67.2179 70.9575 67.6945 71.4462 68.277 71.7891C68.8771 72.1149 69.5126 72.2778 70.1833 72.2778C70.8717 72.2778 71.5072 72.1063 72.0896 71.7634C72.6898 71.4204 73.1664 70.9318 73.5194 70.2973C73.8901 69.6629 74.0754 68.9084 74.0754 68.0339Z" fill="white"/>
<path d="M94.1908 67.7767C94.1908 68.2912 94.1555 68.7541 94.0849 69.1656H83.3618C83.45 70.1944 83.8207 71.0003 84.4738 71.5833C85.1269 72.1663 85.93 72.4578 86.8832 72.4578C88.26 72.4578 89.2396 71.8834 89.8221 70.7346H93.8201C93.3965 72.1063 92.5845 73.238 91.3843 74.1296C90.184 75.0041 88.7101 75.4414 86.9626 75.4414C85.5505 75.4414 84.2796 75.1413 83.1499 74.5412C82.0379 73.9239 81.1642 73.058 80.5287 71.9434C79.9109 70.8289 79.602 69.5429 79.602 68.0854C79.602 66.6108 79.9109 65.3162 80.5287 64.2016C81.1465 63.0871 82.0114 62.2298 83.1235 61.6296C84.2355 61.0295 85.5152 60.7294 86.9626 60.7294C88.3571 60.7294 89.6015 61.0209 90.6959 61.6039C91.8079 62.1869 92.664 63.0185 93.2641 64.0988C93.8819 65.1619 94.1908 66.3879 94.1908 67.7767ZM90.3517 66.7479C90.334 65.822 89.9898 65.0847 89.3191 64.536C88.6483 63.9702 87.8275 63.6872 86.8567 63.6872C85.9388 63.6872 85.1622 63.9616 84.5267 64.5103C83.909 65.0418 83.5294 65.7877 83.3882 66.7479H90.3517Z" fill="white"/>
<path d="M105.025 60.7551C106.772 60.7551 108.184 61.2953 109.261 62.3755C110.338 63.4386 110.876 64.9304 110.876 66.8508V75.2099H107.169V67.3395C107.169 66.2078 106.878 65.3419 106.296 64.7418C105.713 64.1245 104.919 63.8158 103.913 63.8158C102.889 63.8158 102.077 64.1245 101.477 64.7418C100.894 65.3419 100.603 66.2078 100.603 67.3395V75.2099H96.8964V60.9609H100.603V62.7356C101.097 62.1183 101.724 61.6382 102.483 61.2953C103.26 60.9352 104.107 60.7551 105.025 60.7551Z" fill="white"/>
<path d="M118.717 63.9187V70.8117C118.717 71.2918 118.832 71.6433 119.061 71.8663C119.308 72.072 119.714 72.1749 120.279 72.1749H122V75.2099H119.67C116.546 75.2099 114.984 73.7353 114.984 70.786V63.9187H113.236V60.9609H114.984V57.4372H118.717V60.9609H122V63.9187H118.717Z" fill="white"/>
<path d="M45.0762 194.76V193.113L49.5912 188.829C50.023 188.407 50.3828 188.032 50.6707 187.704C50.9586 187.376 51.1745 187.059 51.3184 186.751C51.4624 186.444 51.5343 186.116 51.5343 185.768C51.5343 185.37 51.4412 185.03 51.2549 184.748C51.0686 184.461 50.8125 184.239 50.4865 184.084C50.1606 183.928 49.7901 183.85 49.3753 183.85C48.9477 183.85 48.573 183.936 48.2513 184.108C47.9295 184.276 47.6798 184.516 47.502 184.827C47.3284 185.139 47.2416 185.51 47.2416 185.94H45C45 185.141 45.1884 184.446 45.5652 183.856C45.9419 183.266 46.4605 182.809 47.121 182.486C47.7856 182.162 48.5476 182 49.407 182C50.2791 182 51.0454 182.158 51.7058 182.473C52.3662 182.789 52.8784 183.221 53.2425 183.77C53.6108 184.319 53.795 184.946 53.795 185.651C53.795 186.122 53.7018 186.585 53.5156 187.04C53.3293 187.495 53.0012 187.999 52.5313 188.552C52.0656 189.105 51.4116 189.775 50.5691 190.562L48.3275 192.769V192.855H53.9918V194.76H45.0762Z" fill="white"/>
<path d="M60.9897 195C59.9441 195 59.0466 194.744 58.2972 194.232C57.5522 193.715 56.9785 192.972 56.5764 192C56.1784 191.025 55.9794 189.851 55.9794 188.478C55.9837 187.106 56.1848 185.938 56.5827 184.975C56.9849 184.008 57.5585 183.27 58.3036 182.762C59.0529 182.254 59.9483 182 60.9897 182C62.0311 182 62.9265 182.254 63.6758 182.762C64.4252 183.27 64.9988 184.008 65.3967 184.975C65.7989 185.942 66 187.11 66 188.478C66 189.855 65.7989 191.031 65.3967 192.007C64.9988 192.978 64.4252 193.719 63.6758 194.232C62.9308 194.744 62.0354 195 60.9897 195ZM60.9897 193.076C61.8025 193.076 62.4439 192.689 62.9138 191.914C63.388 191.136 63.625 189.991 63.625 188.478C63.625 187.479 63.5171 186.639 63.3012 185.958C63.0853 185.278 62.7805 184.766 62.3868 184.422C61.993 184.073 61.5274 183.899 60.9897 183.899C60.1811 183.899 59.5419 184.289 59.072 185.067C58.6021 185.842 58.365 186.979 58.3608 188.478C58.3565 189.482 58.4602 190.327 58.6719 191.011C58.8878 191.695 59.1926 192.212 59.5863 192.56C59.98 192.904 60.4478 193.076 60.9897 193.076Z" fill="white"/>
<path d="M50.5936 253.172V265.76H48.1861V255.391H48.1083L45 257.272V255.182L48.3029 253.172H50.5936Z" fill="white"/>
<path d="M58.8801 266C57.8116 266 56.8945 265.744 56.1288 265.232C55.3674 264.715 54.7812 263.972 54.3702 263C53.9636 262.025 53.7602 260.851 53.7602 259.478C53.7646 258.106 53.9701 256.938 54.3767 255.975C54.7877 255.008 55.3739 254.27 56.1352 253.762C56.901 253.254 57.8159 253 58.8801 253C59.9443 253 60.8593 253.254 61.625 253.762C62.3907 254.27 62.9769 255.008 63.3835 255.975C63.7945 256.942 64 258.11 64 259.478C64 260.855 63.7945 262.031 63.3835 263.007C62.9769 263.978 62.3907 264.719 61.625 265.232C60.8636 265.744 59.9487 266 58.8801 266ZM58.8801 264.076C59.7107 264.076 60.3661 263.689 60.8463 262.914C61.3308 262.136 61.5731 260.991 61.5731 259.478C61.5731 258.479 61.4628 257.639 61.2421 256.958C61.0215 256.278 60.71 255.766 60.3077 255.422C59.9054 255.073 59.4295 254.899 58.8801 254.899C58.0538 254.899 57.4006 255.289 56.9204 256.067C56.4402 256.842 56.198 257.979 56.1936 259.478C56.1893 260.482 56.2953 261.327 56.5116 262.011C56.7322 262.695 57.0437 263.212 57.446 263.56C57.8484 263.904 58.3264 264.076 58.8801 264.076Z" fill="white"/>
<path d="M50 337C48.9565 337 48.0608 336.744 47.3131 336.232C46.5695 335.715 45.997 334.972 45.5957 334C45.1986 333.025 45 331.851 45 330.478C45.0042 329.106 45.2049 327.938 45.602 326.975C46.0034 326.008 46.5758 325.27 47.3194 324.762C48.0672 324.254 48.9607 324 50 324C51.0393 324 51.9328 324.254 52.6806 324.762C53.4284 325.27 54.0008 326.008 54.398 326.975C54.7993 327.942 55 329.11 55 330.478C55 331.855 54.7993 333.031 54.398 334.007C54.0008 334.978 53.4284 335.719 52.6806 336.232C51.9371 336.744 51.0435 337 50 337ZM50 335.076C50.8112 335.076 51.4512 334.689 51.9202 333.914C52.3933 333.136 52.6299 331.991 52.6299 330.478C52.6299 329.479 52.5222 328.639 52.3067 327.958C52.0913 327.278 51.7871 326.766 51.3942 326.422C51.0013 326.073 50.5365 325.899 50 325.899C49.1931 325.899 48.5551 326.289 48.0862 327.067C47.6172 327.842 47.3807 328.979 47.3764 330.478C47.3722 331.482 47.4757 332.327 47.6869 333.011C47.9024 333.695 48.2066 334.212 48.5995 334.56C48.9924 334.904 49.4592 335.076 50 335.076Z" fill="white"/>
<path d="M44 93H168V101H44V93Z" fill="#D9D9D9"/>
<path d="M44 93H168V101H44V93Z" fill="url(#paint0_linear_492_248)"/>
<defs>
<linearGradient id="paint0_linear_492_248" x1="44" y1="101" x2="168" y2="101" gradientUnits="userSpaceOnUse">
<stop stop-color="#375EE0"/>
<stop offset="1" stop-color="#A5DFDC"/>
</linearGradient>
</defs>
</svg>
